<svg xmlns="http://www.w3.org/2000/svg" width="2304" height="1079" viewBox="0 0 2304 1079" fill="none" preserveAspectRatio="none">
  <rect x="1383.418" y="672.947" width="762.635" height="762.635" transform="rotate(45 1764.735 1054.265)" stroke="white" stroke-opacity="0.5" fill="none" stroke-width="1" opacity="0.8"/>
  <rect x="1375.577" y="672.947" width="762.635" height="762.635" transform="rotate(45 1756.895 1054.265)" stroke="white" stroke-opacity="0.5" fill="none" stroke-width="1" opacity="0.8"/>
  <rect x="1367.727" y="672.947" width="762.635" height="762.635" transform="rotate(45 1749.045 1054.265)" stroke="white" stroke-opacity="0.5" fill="none" stroke-width="1" opacity="0.8"/>
  <rect x="1359.887" y="672.947" width="762.635" height="762.635" transform="rotate(45 1741.205 1054.265)" stroke="white" stroke-opacity="0.5" fill="none" stroke-width="1" opacity="0.8"/>
  <rect x="1352.048" y="672.947" width="762.635" height="762.635" transform="rotate(45 1733.365 1054.265)" stroke="white" stroke-opacity="0.5" fill="none" stroke-width="1" opacity="0.8"/>
  <rect x="1344.207" y="672.947" width="762.635" height="762.635" transform="rotate(45 1725.525 1054.265)" stroke="white" stroke-opacity="0.5" fill="none" stroke-width="1" opacity="0.8"/>
  <rect x="1336.358" y="672.947" width="762.635" height="762.635" transform="rotate(45 1717.675 1054.265)" stroke="white" stroke-opacity="0.5" fill="none" stroke-width="1" opacity="0.8"/>
  <rect x="1328.517" y="672.947" width="762.635" height="762.635" transform="rotate(45 1709.835 1054.265)" stroke="white" stroke-opacity="0.5" fill="none" stroke-width="1" opacity="0.8"/>
  <rect x="1320.677" y="672.947" width="762.635" height="762.635" transform="rotate(45 1701.995 1054.265)" stroke="white" stroke-opacity="0.5" fill="none" stroke-width="1" opacity="0.8"/>
  <rect x="1312.827" y="672.947" width="762.635" height="762.635" transform="rotate(45 1694.145 1054.265)" stroke="white" stroke-opacity="0.5" fill="none" stroke-width="1" opacity="0.8"/>
  <rect x="1304.987" y="672.947" width="762.635" height="762.635" transform="rotate(45 1686.305 1054.265)" stroke="white" stroke-opacity="0.5" fill="none" stroke-width="1" opacity="0.8"/>
  <rect x="1297.148" y="672.947" width="762.635" height="762.635" transform="rotate(45 1678.465 1054.265)" stroke="white" stroke-opacity="0.5" fill="none" stroke-width="1" opacity="0.8"/>
  <rect x="1289.298" y="672.947" width="762.635" height="762.635" transform="rotate(45 1670.615 1054.265)" stroke="white" stroke-opacity="0.5" fill="none" stroke-width="1" opacity="0.8"/>
  <rect x="1281.457" y="672.947" width="762.635" height="762.635" transform="rotate(45 1662.775 1054.265)" stroke="white" stroke-opacity="0.5" fill="none" stroke-width="1" opacity="0.8"/>
  <rect x="1273.617" y="672.947" width="762.635" height="762.635" transform="rotate(45 1654.935 1054.265)" stroke="white" stroke-opacity="0.5" fill="none" stroke-width="1" opacity="0.8"/>
  <rect x="1265.767" y="672.947" width="762.635" height="762.635" transform="rotate(45 1647.085 1054.265)" stroke="white" stroke-opacity="0.5" fill="none" stroke-width="1" opacity="0.8"/>
  <rect x="1257.927" y="672.947" width="762.635" height="762.635" transform="rotate(45 1639.245 1054.265)" stroke="white" stroke-opacity="0.5" fill="none" stroke-width="1" opacity="0.8"/>
  <rect x="1250.088" y="672.947" width="762.635" height="762.635" transform="rotate(45 1631.405 1054.265)" stroke="white" stroke-opacity="0.5" fill="none" stroke-width="1" opacity="0.8"/>
  <rect x="1242.247" y="672.947" width="762.635" height="762.635" transform="rotate(45 1623.565 1054.265)" stroke="white" stroke-opacity="0.5" fill="none" stroke-width="1" opacity="0.8"/>
  <rect x="1234.398" y="672.947" width="762.635" height="762.635" transform="rotate(45 1615.715 1054.265)" stroke="white" stroke-opacity="0.5" fill="none" stroke-width="1" opacity="0.8"/>
  <rect x="306.967" y="672.947" width="762.635" height="762.635" transform="rotate(45 688.285 1054.265)" stroke="white" stroke-opacity="0.5" fill="none" stroke-width="1" opacity="0.8"/>
  <rect x="299.127" y="672.947" width="762.635" height="762.635" transform="rotate(45 680.445 1054.265)" stroke="white" stroke-opacity="0.5" fill="none" stroke-width="1" opacity="0.8"/>
  <rect x="291.278" y="672.947" width="762.635" height="762.635" transform="rotate(45 672.595 1054.265)" stroke="white" stroke-opacity="0.5" fill="none" stroke-width="1" opacity="0.8"/>
  <rect x="283.438" y="672.947" width="762.635" height="762.635" transform="rotate(45 664.755 1054.265)" stroke="white" stroke-opacity="0.5" fill="none" stroke-width="1" opacity="0.8"/>
  <rect x="275.597" y="672.947" width="762.635" height="762.635" transform="rotate(45 656.915 1054.265)" stroke="white" stroke-opacity="0.5" fill="none" stroke-width="1" opacity="0.8"/>
  <rect x="267.748" y="672.947" width="762.635" height="762.635" transform="rotate(45 649.065 1054.265)" stroke="white" stroke-opacity="0.5" fill="none" stroke-width="1" opacity="0.8"/>
  <rect x="259.908" y="672.947" width="762.635" height="762.635" transform="rotate(45 641.225 1054.265)" stroke="white" stroke-opacity="0.5" fill="none" stroke-width="1" opacity="0.8"/>
  <rect x="252.067" y="672.947" width="762.635" height="762.635" transform="rotate(45 633.385 1054.265)" stroke="white" stroke-opacity="0.5" fill="none" stroke-width="1" opacity="0.8"/>
  <rect x="244.217" y="672.947" width="762.635" height="762.635" transform="rotate(45 625.535 1054.265)" stroke="white" stroke-opacity="0.5" fill="none" stroke-width="1" opacity="0.8"/>
  <rect x="236.377" y="672.947" width="762.635" height="762.635" transform="rotate(45 617.695 1054.265)" stroke="white" stroke-opacity="0.5" fill="none" stroke-width="1" opacity="0.8"/>
  <rect x="228.538" y="672.947" width="762.635" height="762.635" transform="rotate(45 609.855 1054.265)" stroke="white" stroke-opacity="0.5" fill="none" stroke-width="1" opacity="0.8"/>
  <rect x="220.688" y="672.947" width="762.635" height="762.635" transform="rotate(45 602.005 1054.265)" stroke="white" stroke-opacity="0.5" fill="none" stroke-width="1" opacity="0.8"/>
  <rect x="212.847" y="672.947" width="762.635" height="762.635" transform="rotate(45 594.165 1054.265)" stroke="white" stroke-opacity="0.5" fill="none" stroke-width="1" opacity="0.8"/>
  <rect x="205.008" y="672.947" width="762.635" height="762.635" transform="rotate(45 586.325 1054.265)" stroke="white" stroke-opacity="0.5" fill="none" stroke-width="1" opacity="0.8"/>
  <rect x="197.168" y="672.947" width="762.635" height="762.635" transform="rotate(45 578.485 1054.265)" stroke="white" stroke-opacity="0.5" fill="none" stroke-width="1" opacity="0.8"/>
  <rect x="189.317" y="672.947" width="762.635" height="762.635" transform="rotate(45 570.635 1054.265)" stroke="white" stroke-opacity="0.5" fill="none" stroke-width="1" opacity="0.8"/>
  <rect x="181.477" y="672.947" width="762.635" height="762.635" transform="rotate(45 562.795 1054.265)" stroke="white" stroke-opacity="0.5" fill="none" stroke-width="1" opacity="0.8"/>
  <rect x="173.637" y="672.947" width="762.635" height="762.635" transform="rotate(45 554.955 1054.265)" stroke="white" stroke-opacity="0.5" fill="none" stroke-width="1" opacity="0.8"/>
  <rect x="165.788" y="672.947" width="762.635" height="762.635" transform="rotate(45 547.105 1054.265)" stroke="white" stroke-opacity="0.5" fill="none" stroke-width="1" opacity="0.8"/>
  <rect x="157.947" y="672.947" width="762.635" height="762.635" transform="rotate(45 539.265 1054.265)" stroke="white" stroke-opacity="0.5" fill="none" stroke-width="1" opacity="0.8"/>
</svg>
