<svg preserveAspectRatio="none" width="100%" height="100%" overflow="visible" style="display: block;" viewBox="0 0 820.867 700.88" fill="none" xmlns="http://www.w3.org/2000/svg">
<g id="Group" opacity="0.74">
<path id="Vector" d="M0.53033 350.441L350.435 700.346L700.34 350.441L350.435 0.536189L0.53033 350.441Z" stroke="url(#paint0_linear_2018_1265)" stroke-width="0.75" stroke-miterlimit="10"/>
<path id="Vector_2" d="M6.52777 350.438L356.432 700.343L706.337 350.438L356.432 0.533565L6.52777 350.438Z" stroke="url(#paint1_linear_2018_1265)" stroke-width="0.75" stroke-miterlimit="10"/>
<path id="Vector_3" d="M12.5251 350.436L362.43 700.34L712.334 350.436L362.43 0.53094L12.5251 350.436Z" stroke="url(#paint2_linear_2018_1265)" stroke-width="0.75" stroke-miterlimit="10"/>
<path id="Vector_4" d="M18.5325 350.443L368.437 700.348L718.342 350.443L368.437 0.538265L18.5325 350.443Z" stroke="url(#paint3_linear_2018_1265)" stroke-width="0.75" stroke-miterlimit="10"/>
<path id="Vector_5" d="M24.5298 350.44L374.435 700.345L724.339 350.44L374.435 0.53564L24.5298 350.44Z" stroke="url(#paint4_linear_2018_1265)" stroke-width="0.75" stroke-miterlimit="10"/>
<path id="Vector_6" d="M30.5272 350.438L380.432 700.342L730.337 350.438L380.432 0.533016L30.5272 350.438Z" stroke="url(#paint5_linear_2018_1265)" stroke-width="0.75" stroke-miterlimit="10"/>
<path id="Vector_7" d="M36.5246 350.435L386.429 700.34L736.334 350.435L386.429 0.53033L36.5246 350.435Z" stroke="url(#paint6_linear_2018_1265)" stroke-width="0.75" stroke-miterlimit="10"/>
<path id="Vector_8" d="M42.5319 350.442L392.437 700.347L742.341 350.442L392.437 0.537715L42.5319 350.442Z" stroke="url(#paint7_linear_2018_1265)" stroke-width="0.75" stroke-miterlimit="10"/>
<path id="Vector_9" d="M48.5292 350.44L398.434 700.344L748.339 350.44L398.434 0.535091L48.5292 350.44Z" stroke="url(#paint8_linear_2018_1265)" stroke-width="0.75" stroke-miterlimit="10"/>
<path id="Vector_10" d="M54.5267 350.437L404.431 700.342L754.336 350.437L404.431 0.532405L54.5267 350.437Z" stroke="url(#paint9_linear_2018_1265)" stroke-width="0.75" stroke-miterlimit="10"/>
<path id="Vector_11" d="M60.524 350.444L410.429 700.349L760.333 350.444L410.429 0.539791L60.524 350.444Z" stroke="url(#paint10_linear_2018_1265)" stroke-width="0.75" stroke-miterlimit="10"/>
<path id="Vector_12" d="M66.5313 350.442L416.436 700.347L766.341 350.442L416.436 0.537166L66.5313 350.442Z" stroke="url(#paint11_linear_2018_1265)" stroke-width="0.75" stroke-miterlimit="10"/>
<path id="Vector_13" d="M72.5287 350.439L422.433 700.344L772.338 350.439L422.433 0.53448L72.5287 350.439Z" stroke="url(#paint12_linear_2018_1265)" stroke-width="0.75" stroke-miterlimit="10"/>
<path id="Vector_14" d="M78.5261 350.437L428.431 700.341L778.335 350.437L428.431 0.531856L78.5261 350.437Z" stroke="url(#paint13_linear_2018_1265)" stroke-width="0.75" stroke-miterlimit="10"/>
<path id="Vector_15" d="M84.5234 350.444L434.428 700.349L784.333 350.444L434.428 0.539241L84.5234 350.444Z" stroke="url(#paint14_linear_2018_1265)" stroke-width="0.75" stroke-miterlimit="10"/>
<path id="Vector_16" d="M90.5308 350.441L440.436 700.346L790.34 350.441L440.436 0.536556L90.5308 350.441Z" stroke="url(#paint15_linear_2018_1265)" stroke-width="0.75" stroke-miterlimit="10"/>
<path id="Vector_17" d="M96.5281 350.439L446.433 700.343L796.338 350.439L446.433 0.533931L96.5281 350.439Z" stroke="url(#paint16_linear_2018_1265)" stroke-width="0.75" stroke-miterlimit="10"/>
<path id="Vector_18" d="M102.525 350.436L452.43 700.341L802.335 350.436L452.43 0.531307L102.525 350.436Z" stroke="url(#paint17_linear_2018_1265)" stroke-width="0.75" stroke-miterlimit="10"/>
<path id="Vector_19" d="M108.533 350.443L458.438 700.348L808.342 350.443L458.438 0.538692L108.533 350.443Z" stroke="url(#paint18_linear_2018_1265)" stroke-width="0.75" stroke-miterlimit="10"/>
<path id="Vector_20" d="M114.53 350.441L464.435 700.345L814.34 350.441L464.435 0.536006L114.53 350.441Z" stroke="url(#paint19_linear_2018_1265)" stroke-width="0.75" stroke-miterlimit="10"/>
<path id="Vector_21" d="M120.528 350.438L470.432 700.343L820.337 350.438L470.432 0.533382L120.528 350.438Z" stroke="url(#paint20_linear_2018_1265)" stroke-width="0.75" stroke-miterlimit="10"/>
</g>
<defs>
<linearGradient id="paint0_linear_2018_1265" x1="700.878" y1="350.448" x2="-0.00172525" y2="350.448" gradientUnits="userSpaceOnUse">
<stop stop-color="white" stop-opacity="0"/>
<stop offset="1" stop-color="white"/>
</linearGradient>
<linearGradient id="paint1_linear_2018_1265" x1="706.872" y1="350.438" x2="5.99239" y2="350.438" gradientUnits="userSpaceOnUse">
<stop stop-color="white" stop-opacity="0"/>
<stop offset="1" stop-color="white"/>
</linearGradient>
<linearGradient id="paint2_linear_2018_1265" x1="712.873" y1="350.435" x2="11.9934" y2="350.435" gradientUnits="userSpaceOnUse">
<stop stop-color="white" stop-opacity="0"/>
<stop offset="1" stop-color="white"/>
</linearGradient>
<linearGradient id="paint3_linear_2018_1265" x1="718.885" y1="350.443" x2="18.0046" y2="350.443" gradientUnits="userSpaceOnUse">
<stop stop-color="white" stop-opacity="0"/>
<stop offset="1" stop-color="white"/>
</linearGradient>
<linearGradient id="paint4_linear_2018_1265" x1="724.879" y1="350.447" x2="23.9986" y2="350.447" gradientUnits="userSpaceOnUse">
<stop stop-color="white" stop-opacity="0"/>
<stop offset="1" stop-color="white"/>
</linearGradient>
<linearGradient id="paint5_linear_2018_1265" x1="730.872" y1="350.437" x2="29.9926" y2="350.437" gradientUnits="userSpaceOnUse">
<stop stop-color="white" stop-opacity="0"/>
<stop offset="1" stop-color="white"/>
</linearGradient>
<linearGradient id="paint6_linear_2018_1265" x1="736.874" y1="350.435" x2="35.9937" y2="350.435" gradientUnits="userSpaceOnUse">
<stop stop-color="white" stop-opacity="0"/>
<stop offset="1" stop-color="white"/>
</linearGradient>
<linearGradient id="paint7_linear_2018_1265" x1="742.878" y1="350.449" x2="41.9977" y2="350.449" gradientUnits="userSpaceOnUse">
<stop stop-color="white" stop-opacity="0"/>
<stop offset="1" stop-color="white"/>
</linearGradient>
<linearGradient id="paint8_linear_2018_1265" x1="748.879" y1="350.447" x2="47.9988" y2="350.447" gradientUnits="userSpaceOnUse">
<stop stop-color="white" stop-opacity="0"/>
<stop offset="1" stop-color="white"/>
</linearGradient>
<linearGradient id="paint9_linear_2018_1265" x1="754.873" y1="350.437" x2="53.9929" y2="350.437" gradientUnits="userSpaceOnUse">
<stop stop-color="white" stop-opacity="0"/>
<stop offset="1" stop-color="white"/>
</linearGradient>
<linearGradient id="paint10_linear_2018_1265" x1="760.874" y1="350.444" x2="59.9939" y2="350.444" gradientUnits="userSpaceOnUse">
<stop stop-color="white" stop-opacity="0"/>
<stop offset="1" stop-color="white"/>
</linearGradient>
<linearGradient id="paint11_linear_2018_1265" x1="766.878" y1="350.449" x2="65.9979" y2="350.449" gradientUnits="userSpaceOnUse">
<stop stop-color="white" stop-opacity="0"/>
<stop offset="1" stop-color="white"/>
</linearGradient>
<linearGradient id="paint12_linear_2018_1265" x1="772.872" y1="350.439" x2="71.992" y2="350.439" gradientUnits="userSpaceOnUse">
<stop stop-color="white" stop-opacity="0"/>
<stop offset="1" stop-color="white"/>
</linearGradient>
<linearGradient id="paint13_linear_2018_1265" x1="778.873" y1="350.436" x2="77.9931" y2="350.436" gradientUnits="userSpaceOnUse">
<stop stop-color="white" stop-opacity="0"/>
<stop offset="1" stop-color="white"/>
</linearGradient>
<linearGradient id="paint14_linear_2018_1265" x1="784.874" y1="350.444" x2="83.9941" y2="350.444" gradientUnits="userSpaceOnUse">
<stop stop-color="white" stop-opacity="0"/>
<stop offset="1" stop-color="white"/>
</linearGradient>
<linearGradient id="paint15_linear_2018_1265" x1="790.878" y1="350.448" x2="89.9982" y2="350.448" gradientUnits="userSpaceOnUse">
<stop stop-color="white" stop-opacity="0"/>
<stop offset="1" stop-color="white"/>
</linearGradient>
<linearGradient id="paint16_linear_2018_1265" x1="796.872" y1="350.438" x2="95.9922" y2="350.438" gradientUnits="userSpaceOnUse">
<stop stop-color="white" stop-opacity="0"/>
<stop offset="1" stop-color="white"/>
</linearGradient>
<linearGradient id="paint17_linear_2018_1265" x1="802.873" y1="350.436" x2="101.993" y2="350.436" gradientUnits="userSpaceOnUse">
<stop stop-color="white" stop-opacity="0"/>
<stop offset="1" stop-color="white"/>
</linearGradient>
<linearGradient id="paint18_linear_2018_1265" x1="808.884" y1="350.443" x2="108.004" y2="350.443" gradientUnits="userSpaceOnUse">
<stop stop-color="white" stop-opacity="0"/>
<stop offset="1" stop-color="white"/>
</linearGradient>
<linearGradient id="paint19_linear_2018_1265" x1="814.878" y1="350.448" x2="113.998" y2="350.448" gradientUnits="userSpaceOnUse">
<stop stop-color="white" stop-opacity="0"/>
<stop offset="1" stop-color="white"/>
</linearGradient>
<linearGradient id="paint20_linear_2018_1265" x1="820.872" y1="350.438" x2="119.992" y2="350.438" gradientUnits="userSpaceOnUse">
<stop stop-color="white" stop-opacity="0"/>
<stop offset="1" stop-color="white"/>
</linearGradient>
</defs>
</svg>
