<svg preserveAspectRatio="none" width="100%" height="100%" overflow="visible" style="display: block;" viewBox="0 0 820.863 700.88" fill="none" xmlns="http://www.w3.org/2000/svg">
<g id="Group" opacity="0.74">
<path id="Vector" d="M470.428 0.53033L120.523 350.435L470.428 700.34L820.333 350.435L470.428 0.53033Z" stroke="url(#paint0_linear_2018_1297)" stroke-width="0.75" stroke-miterlimit="10"/>
<path id="Vector_2" d="M464.435 0.532955L114.531 350.438L464.435 700.342L814.34 350.438L464.435 0.532955Z" stroke="url(#paint1_linear_2018_1297)" stroke-width="0.75" stroke-miterlimit="10"/>
<path id="Vector_3" d="M458.433 0.53561L108.528 350.44L458.433 700.345L808.337 350.44L458.433 0.53561Z" stroke="url(#paint2_linear_2018_1297)" stroke-width="0.75" stroke-miterlimit="10"/>
<path id="Vector_4" d="M452.43 0.538234L102.525 350.443L452.43 700.348L802.335 350.443L452.43 0.538234Z" stroke="url(#paint3_linear_2018_1297)" stroke-width="0.75" stroke-miterlimit="10"/>
<path id="Vector_5" d="M446.427 0.530879L96.5226 350.436L446.427 700.34L796.332 350.436L446.427 0.530879Z" stroke="url(#paint4_linear_2018_1297)" stroke-width="0.75" stroke-miterlimit="10"/>
<path id="Vector_6" d="M440.435 0.533534L90.5299 350.438L440.435 700.343L790.339 350.438L440.435 0.533534Z" stroke="url(#paint5_linear_2018_1297)" stroke-width="0.75" stroke-miterlimit="10"/>
<path id="Vector_7" d="M434.432 0.536159L84.5273 350.441L434.432 700.346L784.337 350.441L434.432 0.536159Z" stroke="url(#paint6_linear_2018_1297)" stroke-width="0.75" stroke-miterlimit="10"/>
<path id="Vector_8" d="M428.429 0.538814L78.5247 350.444L428.429 700.348L778.334 350.444L428.429 0.538814Z" stroke="url(#paint7_linear_2018_1297)" stroke-width="0.75" stroke-miterlimit="10"/>
<path id="Vector_9" d="M422.427 0.531459L72.522 350.436L422.427 700.341L772.331 350.436L422.427 0.531459Z" stroke="url(#paint8_linear_2018_1297)" stroke-width="0.75" stroke-miterlimit="10"/>
<path id="Vector_10" d="M416.434 0.534084L66.5294 350.439L416.434 700.343L766.339 350.439L416.434 0.534084Z" stroke="url(#paint9_linear_2018_1297)" stroke-width="0.75" stroke-miterlimit="10"/>
<path id="Vector_11" d="M410.431 0.536739L60.5267 350.441L410.431 700.346L760.336 350.441L410.431 0.536739Z" stroke="url(#paint10_linear_2018_1297)" stroke-width="0.75" stroke-miterlimit="10"/>
<path id="Vector_12" d="M404.429 0.539363L54.5241 350.444L404.429 700.349L754.333 350.444L404.429 0.539363Z" stroke="url(#paint11_linear_2018_1297)" stroke-width="0.75" stroke-miterlimit="10"/>
<path id="Vector_13" d="M398.436 0.532009L48.5315 350.437L398.436 700.341L748.341 350.437L398.436 0.532009Z" stroke="url(#paint12_linear_2018_1297)" stroke-width="0.75" stroke-miterlimit="10"/>
<path id="Vector_14" d="M392.434 0.534664L42.5288 350.439L392.434 700.344L742.338 350.439L392.434 0.534664Z" stroke="url(#paint13_linear_2018_1297)" stroke-width="0.75" stroke-miterlimit="10"/>
<path id="Vector_15" d="M386.431 0.537288L36.5262 350.442L386.431 700.347L736.336 350.442L386.431 0.537288Z" stroke="url(#paint14_linear_2018_1297)" stroke-width="0.75" stroke-miterlimit="10"/>
<path id="Vector_16" d="M380.428 0.539943L30.5235 350.445L380.428 700.349L730.333 350.445L380.428 0.539943Z" stroke="url(#paint15_linear_2018_1297)" stroke-width="0.75" stroke-miterlimit="10"/>
<path id="Vector_17" d="M374.436 0.532567L24.5309 350.437L374.436 700.342L724.34 350.437L374.436 0.532567Z" stroke="url(#paint16_linear_2018_1297)" stroke-width="0.75" stroke-miterlimit="10"/>
<path id="Vector_18" d="M368.433 0.535191L18.5283 350.44L368.433 700.345L718.338 350.44L368.433 0.535191Z" stroke="url(#paint17_linear_2018_1297)" stroke-width="0.75" stroke-miterlimit="10"/>
<path id="Vector_19" d="M362.43 0.537846L12.5256 350.443L362.43 700.347L712.335 350.443L362.43 0.537846Z" stroke="url(#paint18_linear_2018_1297)" stroke-width="0.75" stroke-miterlimit="10"/>
<path id="Vector_20" d="M356.428 0.530492L6.52297 350.435L356.428 700.34L706.332 350.435L356.428 0.530492Z" stroke="url(#paint19_linear_2018_1297)" stroke-width="0.75" stroke-miterlimit="10"/>
<path id="Vector_21" d="M350.435 0.533116L0.53033 350.438L350.435 700.343L700.34 350.438L350.435 0.533116Z" stroke="url(#paint20_linear_2018_1297)" stroke-width="0.75" stroke-miterlimit="10"/>
</g>
<defs>
<linearGradient id="paint0_linear_2018_1297" x1="119.99" y1="350.442" x2="820.87" y2="350.442" gradientUnits="userSpaceOnUse">
<stop stop-color="white" stop-opacity="0"/>
<stop offset="1" stop-color="white"/>
</linearGradient>
<linearGradient id="paint1_linear_2018_1297" x1="114" y1="-1.31257" x2="814.88" y2="-1.31257" gradientUnits="userSpaceOnUse">
<stop stop-color="white" stop-opacity="0"/>
<stop offset="1" stop-color="white"/>
</linearGradient>
<linearGradient id="paint2_linear_2018_1297" x1="107.994" y1="-1.30992" x2="808.874" y2="-1.30992" gradientUnits="userSpaceOnUse">
<stop stop-color="white" stop-opacity="0"/>
<stop offset="1" stop-color="white"/>
</linearGradient>
<linearGradient id="paint3_linear_2018_1297" x1="101.988" y1="-1.30729" x2="802.868" y2="-1.30729" gradientUnits="userSpaceOnUse">
<stop stop-color="white" stop-opacity="0"/>
<stop offset="1" stop-color="white"/>
</linearGradient>
<linearGradient id="paint4_linear_2018_1297" x1="95.9884" y1="-1.30763" x2="796.868" y2="-1.30763" gradientUnits="userSpaceOnUse">
<stop stop-color="white" stop-opacity="0"/>
<stop offset="1" stop-color="white"/>
</linearGradient>
<linearGradient id="paint5_linear_2018_1297" x1="89.9991" y1="-1.31199" x2="790.879" y2="-1.31199" gradientUnits="userSpaceOnUse">
<stop stop-color="white" stop-opacity="0"/>
<stop offset="1" stop-color="white"/>
</linearGradient>
<linearGradient id="paint6_linear_2018_1297" x1="83.9927" y1="-1.30937" x2="784.873" y2="-1.30937" gradientUnits="userSpaceOnUse">
<stop stop-color="white" stop-opacity="0"/>
<stop offset="1" stop-color="white"/>
</linearGradient>
<linearGradient id="paint7_linear_2018_1297" x1="77.9863" y1="-1.30671" x2="778.866" y2="-1.30671" gradientUnits="userSpaceOnUse">
<stop stop-color="white" stop-opacity="0"/>
<stop offset="1" stop-color="white"/>
</linearGradient>
<linearGradient id="paint8_linear_2018_1297" x1="71.987" y1="-1.30705" x2="772.867" y2="-1.30705" gradientUnits="userSpaceOnUse">
<stop stop-color="white" stop-opacity="0"/>
<stop offset="1" stop-color="white"/>
</linearGradient>
<linearGradient id="paint9_linear_2018_1297" x1="65.9977" y1="-1.31144" x2="766.878" y2="-1.31144" gradientUnits="userSpaceOnUse">
<stop stop-color="white" stop-opacity="0"/>
<stop offset="1" stop-color="white"/>
</linearGradient>
<linearGradient id="paint10_linear_2018_1297" x1="59.9913" y1="-1.30879" x2="760.871" y2="-1.30879" gradientUnits="userSpaceOnUse">
<stop stop-color="white" stop-opacity="0"/>
<stop offset="1" stop-color="white"/>
</linearGradient>
<linearGradient id="paint11_linear_2018_1297" x1="53.985" y1="-1.30616" x2="754.865" y2="-1.30616" gradientUnits="userSpaceOnUse">
<stop stop-color="white" stop-opacity="0"/>
<stop offset="1" stop-color="white"/>
</linearGradient>
<linearGradient id="paint12_linear_2018_1297" x1="47.9957" y1="-1.3065" x2="748.876" y2="-1.3065" gradientUnits="userSpaceOnUse">
<stop stop-color="white" stop-opacity="0"/>
<stop offset="1" stop-color="white"/>
</linearGradient>
<linearGradient id="paint13_linear_2018_1297" x1="41.9963" y1="-1.31086" x2="742.876" y2="-1.31086" gradientUnits="userSpaceOnUse">
<stop stop-color="white" stop-opacity="0"/>
<stop offset="1" stop-color="white"/>
</linearGradient>
<linearGradient id="paint14_linear_2018_1297" x1="35.99" y1="-1.30824" x2="736.87" y2="-1.30824" gradientUnits="userSpaceOnUse">
<stop stop-color="white" stop-opacity="0"/>
<stop offset="1" stop-color="white"/>
</linearGradient>
<linearGradient id="paint15_linear_2018_1297" x1="29.9836" y1="-1.30558" x2="730.864" y2="-1.30558" gradientUnits="userSpaceOnUse">
<stop stop-color="white" stop-opacity="0"/>
<stop offset="1" stop-color="white"/>
</linearGradient>
<linearGradient id="paint16_linear_2018_1297" x1="23.9943" y1="-1.30593" x2="724.874" y2="-1.30591" gradientUnits="userSpaceOnUse">
<stop stop-color="white" stop-opacity="0"/>
<stop offset="1" stop-color="white"/>
</linearGradient>
<linearGradient id="paint17_linear_2018_1297" x1="17.995" y1="-1.31032" x2="718.875" y2="-1.3103" gradientUnits="userSpaceOnUse">
<stop stop-color="white" stop-opacity="0"/>
<stop offset="1" stop-color="white"/>
</linearGradient>
<linearGradient id="paint18_linear_2018_1297" x1="11.9886" y1="-1.30767" x2="712.869" y2="-1.30765" gradientUnits="userSpaceOnUse">
<stop stop-color="white" stop-opacity="0"/>
<stop offset="1" stop-color="white"/>
</linearGradient>
<linearGradient id="paint19_linear_2018_1297" x1="5.98931" y1="-1.308" x2="706.869" y2="-1.30798" gradientUnits="userSpaceOnUse">
<stop stop-color="white" stop-opacity="0"/>
<stop offset="1" stop-color="white"/>
</linearGradient>
<linearGradient id="paint20_linear_2018_1297" x1="1.08791e-05" y1="-1.3124" x2="700.88" y2="-1.31238" gradientUnits="userSpaceOnUse">
<stop stop-color="white" stop-opacity="0"/>
<stop offset="1" stop-color="white"/>
</linearGradient>
</defs>
</svg>
