<svg width="1200" height="1420" viewBox="0 0 1200 1420" fill="none" xmlns="http://www.w3.org/2000/svg">
<mask id="mask0_2032_2128" style="mask-type:alpha" maskUnits="userSpaceOnUse" x="0" y="0" width="1200" height="1420">
<rect width="1200" height="1420" fill="#D9D9D9"/>
</mask>
<g mask="url(#mask0_2032_2128)">
<mask id="mask1_2032_2128" style="mask-type:alpha" maskUnits="userSpaceOnUse" x="-338" y="505" width="2305" height="1079">
<rect x="1426.74" y="505.707" width="761.635" height="761.635" transform="rotate(45 1426.74 505.707)" stroke="white"/>
<rect x="1418.89" y="505.707" width="761.635" height="761.635" transform="rotate(45 1418.89 505.707)" stroke="white"/>
<rect x="1411.05" y="505.707" width="761.635" height="761.635" transform="rotate(45 1411.05 505.707)" stroke="white"/>
<rect x="1403.21" y="505.707" width="761.635" height="761.635" transform="rotate(45 1403.21 505.707)" stroke="white"/>
<rect x="1395.36" y="505.707" width="761.635" height="761.635" transform="rotate(45 1395.36 505.707)" stroke="white"/>
<rect x="1387.52" y="505.707" width="761.635" height="761.635" transform="rotate(45 1387.52 505.707)" stroke="white"/>
<rect x="1379.68" y="505.707" width="761.635" height="761.635" transform="rotate(45 1379.68 505.707)" stroke="white"/>
<rect x="1371.83" y="505.707" width="761.635" height="761.635" transform="rotate(45 1371.83 505.707)" stroke="white"/>
<rect x="1363.99" y="505.707" width="761.635" height="761.635" transform="rotate(45 1363.99 505.707)" stroke="white"/>
<rect x="1356.15" y="505.707" width="761.635" height="761.635" transform="rotate(45 1356.15 505.707)" stroke="white"/>
<rect x="1348.3" y="505.707" width="761.635" height="761.635" transform="rotate(45 1348.3 505.707)" stroke="white"/>
<rect x="1340.46" y="505.707" width="761.635" height="761.635" transform="rotate(45 1340.46 505.707)" stroke="white"/>
<rect x="1332.62" y="505.707" width="761.635" height="761.635" transform="rotate(45 1332.62 505.707)" stroke="white"/>
<rect x="1324.77" y="505.707" width="761.635" height="761.635" transform="rotate(45 1324.77 505.707)" stroke="white"/>
<rect x="1316.93" y="505.707" width="761.635" height="761.635" transform="rotate(45 1316.93 505.707)" stroke="white"/>
<rect x="1309.09" y="505.707" width="761.635" height="761.635" transform="rotate(45 1309.09 505.707)" stroke="white"/>
<rect x="1301.25" y="505.707" width="761.635" height="761.635" transform="rotate(45 1301.25 505.707)" stroke="white"/>
<rect x="1293.4" y="505.707" width="761.635" height="761.635" transform="rotate(45 1293.4 505.707)" stroke="white"/>
<rect x="1285.56" y="505.707" width="761.635" height="761.635" transform="rotate(45 1285.56 505.707)" stroke="white"/>
<rect x="1277.72" y="505.707" width="761.635" height="761.635" transform="rotate(45 1277.72 505.707)" stroke="white"/>
<rect x="350.283" y="505.707" width="761.635" height="761.635" transform="rotate(45 350.283 505.707)" stroke="white"/>
<rect x="342.44" y="505.707" width="761.635" height="761.635" transform="rotate(45 342.44 505.707)" stroke="white"/>
<rect x="334.597" y="505.707" width="761.635" height="761.635" transform="rotate(45 334.597 505.707)" stroke="white"/>
<rect x="326.754" y="505.707" width="761.635" height="761.635" transform="rotate(45 326.754 505.707)" stroke="white"/>
<rect x="318.911" y="505.707" width="761.635" height="761.635" transform="rotate(45 318.911 505.707)" stroke="white"/>
<rect x="311.068" y="505.707" width="761.635" height="761.635" transform="rotate(45 311.068 505.707)" stroke="white"/>
<rect x="303.225" y="505.707" width="761.635" height="761.635" transform="rotate(45 303.225 505.707)" stroke="white"/>
<rect x="295.382" y="505.707" width="761.635" height="761.635" transform="rotate(45 295.382 505.707)" stroke="white"/>
<rect x="287.539" y="505.707" width="761.635" height="761.635" transform="rotate(45 287.539 505.707)" stroke="white"/>
<rect x="279.696" y="505.707" width="761.635" height="761.635" transform="rotate(45 279.696 505.707)" stroke="white"/>
<rect x="271.852" y="505.707" width="761.635" height="761.635" transform="rotate(45 271.852 505.707)" stroke="white"/>
<rect x="264.009" y="505.707" width="761.635" height="761.635" transform="rotate(45 264.009 505.707)" stroke="white"/>
<rect x="256.166" y="505.707" width="761.635" height="761.635" transform="rotate(45 256.166 505.707)" stroke="white"/>
<rect x="248.323" y="505.707" width="761.635" height="761.635" transform="rotate(45 248.323 505.707)" stroke="white"/>
<rect x="240.48" y="505.707" width="761.635" height="761.635" transform="rotate(45 240.48 505.707)" stroke="white"/>
<rect x="232.637" y="505.707" width="761.635" height="761.635" transform="rotate(45 232.637 505.707)" stroke="white"/>
<rect x="224.794" y="505.707" width="761.635" height="761.635" transform="rotate(45 224.794 505.707)" stroke="white"/>
<rect x="216.951" y="505.707" width="761.635" height="761.635" transform="rotate(45 216.951 505.707)" stroke="white"/>
<rect x="209.107" y="505.707" width="761.635" height="761.635" transform="rotate(45 209.107 505.707)" stroke="white"/>
<rect x="201.264" y="505.707" width="761.635" height="761.635" transform="rotate(45 201.264 505.707)" stroke="white"/>
</mask>
<g mask="url(#mask1_2032_2128)">
<rect x="354.5" y="1020.5" width="1923" height="399" fill="white" stroke="white"/>
</g>
<rect x="888.736" y="-33.2929" width="761.635" height="761.635" transform="rotate(45 888.736 -33.2929)" stroke="white"/>
<rect x="880.893" y="-33.2929" width="761.635" height="761.635" transform="rotate(45 880.893 -33.2929)" stroke="white"/>
<rect x="873.049" y="-33.2929" width="761.635" height="761.635" transform="rotate(45 873.049 -33.2929)" stroke="white"/>
<rect x="865.207" y="-33.2929" width="761.635" height="761.635" transform="rotate(45 865.207 -33.2929)" stroke="white"/>
<rect x="857.363" y="-33.2929" width="761.635" height="761.635" transform="rotate(45 857.363 -33.2929)" stroke="white"/>
<rect x="849.52" y="-33.2929" width="761.635" height="761.635" transform="rotate(45 849.52 -33.2929)" stroke="white"/>
<rect x="841.677" y="-33.2929" width="761.635" height="761.635" transform="rotate(45 841.677 -33.2929)" stroke="white"/>
<rect x="833.833" y="-33.2929" width="761.635" height="761.635" transform="rotate(45 833.833 -33.2929)" stroke="white"/>
<rect x="825.991" y="-33.2929" width="761.635" height="761.635" transform="rotate(45 825.991 -33.2929)" stroke="white"/>
<rect x="818.148" y="-33.2929" width="761.635" height="761.635" transform="rotate(45 818.148 -33.2929)" stroke="white"/>
<rect x="810.304" y="-33.2929" width="761.635" height="761.635" transform="rotate(45 810.304 -33.2929)" stroke="white"/>
<rect x="802.461" y="-33.2929" width="761.635" height="761.635" transform="rotate(45 802.461 -33.2929)" stroke="white"/>
<rect x="794.618" y="-33.2929" width="761.635" height="761.635" transform="rotate(45 794.618 -33.2929)" stroke="white"/>
<rect x="786.775" y="-33.2929" width="761.635" height="761.635" transform="rotate(45 786.775 -33.2929)" stroke="white"/>
<rect x="778.932" y="-33.2929" width="761.635" height="761.635" transform="rotate(45 778.932 -33.2929)" stroke="white"/>
<rect x="771.089" y="-33.2929" width="761.635" height="761.635" transform="rotate(45 771.089 -33.2929)" stroke="white"/>
<rect x="763.246" y="-33.2929" width="761.635" height="761.635" transform="rotate(45 763.246 -33.2929)" stroke="white"/>
<rect x="755.402" y="-33.2929" width="761.635" height="761.635" transform="rotate(45 755.402 -33.2929)" stroke="white"/>
<rect x="747.56" y="-33.2929" width="761.635" height="761.635" transform="rotate(45 747.56 -33.2929)" stroke="white"/>
<rect x="739.717" y="-33.2929" width="761.635" height="761.635" transform="rotate(45 739.717 -33.2929)" stroke="white"/>
<rect x="-187.717" y="-33.2929" width="761.635" height="761.635" transform="rotate(45 -187.717 -33.2929)" stroke="white"/>
<rect x="-195.56" y="-33.2929" width="761.635" height="761.635" transform="rotate(45 -195.56 -33.2929)" stroke="white"/>
<rect x="-203.403" y="-33.2929" width="761.635" height="761.635" transform="rotate(45 -203.403 -33.2929)" stroke="white"/>
<rect x="-211.246" y="-33.2929" width="761.635" height="761.635" transform="rotate(45 -211.246 -33.2929)" stroke="white"/>
<rect x="-219.089" y="-33.2929" width="761.635" height="761.635" transform="rotate(45 -219.089 -33.2929)" stroke="white"/>
<rect x="-226.932" y="-33.2929" width="761.635" height="761.635" transform="rotate(45 -226.932 -33.2929)" stroke="white"/>
<rect x="-234.775" y="-33.2929" width="761.635" height="761.635" transform="rotate(45 -234.775 -33.2929)" stroke="white"/>
<rect x="-242.618" y="-33.2929" width="761.635" height="761.635" transform="rotate(45 -242.618 -33.2929)" stroke="white"/>
<rect x="-250.461" y="-33.2929" width="761.635" height="761.635" transform="rotate(45 -250.461 -33.2929)" stroke="white"/>
<rect x="-258.304" y="-33.2929" width="761.635" height="761.635" transform="rotate(45 -258.304 -33.2929)" stroke="white"/>
<rect x="-266.148" y="-33.2929" width="761.635" height="761.635" transform="rotate(45 -266.148 -33.2929)" stroke="white"/>
<rect x="-273.991" y="-33.2929" width="761.635" height="761.635" transform="rotate(45 -273.991 -33.2929)" stroke="white"/>
<rect x="-281.834" y="-33.2929" width="761.635" height="761.635" transform="rotate(45 -281.834 -33.2929)" stroke="white"/>
<rect x="-289.677" y="-33.2929" width="761.635" height="761.635" transform="rotate(45 -289.677 -33.2929)" stroke="white"/>
<rect x="-297.52" y="-33.2929" width="761.635" height="761.635" transform="rotate(45 -297.52 -33.2929)" stroke="white"/>
<rect x="-305.363" y="-33.2929" width="761.635" height="761.635" transform="rotate(45 -305.363 -33.2929)" stroke="white"/>
<rect x="-313.206" y="-33.2929" width="761.635" height="761.635" transform="rotate(45 -313.206 -33.2929)" stroke="white"/>
<rect x="-321.049" y="-33.2929" width="761.635" height="761.635" transform="rotate(45 -321.049 -33.2929)" stroke="white"/>
<rect x="-328.893" y="-33.2929" width="761.635" height="761.635" transform="rotate(45 -328.893 -33.2929)" stroke="white"/>
<rect x="-336.736" y="-33.2929" width="761.635" height="761.635" transform="rotate(45 -336.736 -33.2929)" stroke="white"/>
</g>
</svg>
