<svg xmlns="http://www.w3.org/2000/svg" width="2304" height="2158" viewBox="0 0 2304 2158" fill="none" preserveAspectRatio="none">
  <rect x="1383.418" y="157.947" width="762.635" height="762.635" transform="rotate(45 1764.735 539.265)" stroke="white" stroke-opacity="0.8" fill="none" stroke-width="1"/>
  <rect x="1375.577" y="157.947" width="762.635" height="762.635" transform="rotate(45 1756.895 539.265)" stroke="white" stroke-opacity="0.8" fill="none" stroke-width="1"/>
  <rect x="1367.727" y="157.947" width="762.635" height="762.635" transform="rotate(45 1749.045 539.265)" stroke="white" stroke-opacity="0.8" fill="none" stroke-width="1"/>
  <rect x="1359.887" y="157.947" width="762.635" height="762.635" transform="rotate(45 1741.205 539.265)" stroke="white" stroke-opacity="0.8" fill="none" stroke-width="1"/>
  <rect x="1352.048" y="157.947" width="762.635" height="762.635" transform="rotate(45 1733.365 539.265)" stroke="white" stroke-opacity="0.8" fill="none" stroke-width="1"/>
  <rect x="1344.207" y="157.947" width="762.635" height="762.635" transform="rotate(45 1725.525 539.265)" stroke="white" stroke-opacity="0.8" fill="none" stroke-width="1"/>
  <rect x="1336.358" y="157.947" width="762.635" height="762.635" transform="rotate(45 1717.675 539.265)" stroke="white" stroke-opacity="0.8" fill="none" stroke-width="1"/>
  <rect x="1328.517" y="157.947" width="762.635" height="762.635" transform="rotate(45 1709.835 539.265)" stroke="white" stroke-opacity="0.8" fill="none" stroke-width="1"/>
  <rect x="1320.677" y="157.947" width="762.635" height="762.635" transform="rotate(45 1701.995 539.265)" stroke="white" stroke-opacity="0.8" fill="none" stroke-width="1"/>
  <rect x="1312.827" y="157.947" width="762.635" height="762.635" transform="rotate(45 1694.145 539.265)" stroke="white" stroke-opacity="0.8" fill="none" stroke-width="1"/>
  <rect x="1304.988" y="157.947" width="762.635" height="762.635" transform="rotate(45 1686.305 539.265)" stroke="white" stroke-opacity="0.8" fill="none" stroke-width="1"/>
  <rect x="1297.148" y="157.947" width="762.635" height="762.635" transform="rotate(45 1678.465 539.265)" stroke="white" stroke-opacity="0.8" fill="none" stroke-width="1"/>
  <rect x="1289.298" y="157.947" width="762.635" height="762.635" transform="rotate(45 1670.615 539.265)" stroke="white" stroke-opacity="0.8" fill="none" stroke-width="1"/>
  <rect x="1281.457" y="157.947" width="762.635" height="762.635" transform="rotate(45 1662.775 539.265)" stroke="white" stroke-opacity="0.8" fill="none" stroke-width="1"/>
  <rect x="1273.617" y="157.947" width="762.635" height="762.635" transform="rotate(45 1654.935 539.265)" stroke="white" stroke-opacity="0.8" fill="none" stroke-width="1"/>
  <rect x="1265.767" y="157.947" width="762.635" height="762.635" transform="rotate(45 1647.085 539.265)" stroke="white" stroke-opacity="0.8" fill="none" stroke-width="1"/>
  <rect x="1257.927" y="157.947" width="762.635" height="762.635" transform="rotate(45 1639.245 539.265)" stroke="white" stroke-opacity="0.8" fill="none" stroke-width="1"/>
  <rect x="1250.088" y="157.947" width="762.635" height="762.635" transform="rotate(45 1631.405 539.265)" stroke="white" stroke-opacity="0.8" fill="none" stroke-width="1"/>
  <rect x="1242.247" y="157.947" width="762.635" height="762.635" transform="rotate(45 1623.565 539.265)" stroke="white" stroke-opacity="0.8" fill="none" stroke-width="1"/>
  <rect x="1234.398" y="157.947" width="762.635" height="762.635" transform="rotate(45 1615.715 539.265)" stroke="white" stroke-opacity="0.8" fill="none" stroke-width="1"/>
  <rect x="306.967" y="157.947" width="762.635" height="762.635" transform="rotate(45 688.285 539.265)" stroke="white" stroke-opacity="0.8" fill="none" stroke-width="1"/>
  <rect x="299.127" y="157.947" width="762.635" height="762.635" transform="rotate(45 680.445 539.265)" stroke="white" stroke-opacity="0.8" fill="none" stroke-width="1"/>
  <rect x="291.278" y="157.947" width="762.635" height="762.635" transform="rotate(45 672.595 539.265)" stroke="white" stroke-opacity="0.8" fill="none" stroke-width="1"/>
  <rect x="283.438" y="157.947" width="762.635" height="762.635" transform="rotate(45 664.755 539.265)" stroke="white" stroke-opacity="0.8" fill="none" stroke-width="1"/>
  <rect x="275.597" y="157.947" width="762.635" height="762.635" transform="rotate(45 656.915 539.265)" stroke="white" stroke-opacity="0.8" fill="none" stroke-width="1"/>
  <rect x="267.747" y="157.947" width="762.635" height="762.635" transform="rotate(45 649.065 539.265)" stroke="white" stroke-opacity="0.8" fill="none" stroke-width="1"/>
  <rect x="259.908" y="157.947" width="762.635" height="762.635" transform="rotate(45 641.225 539.265)" stroke="white" stroke-opacity="0.8" fill="none" stroke-width="1"/>
  <rect x="252.067" y="157.947" width="762.635" height="762.635" transform="rotate(45 633.385 539.265)" stroke="white" stroke-opacity="0.8" fill="none" stroke-width="1"/>
  <rect x="244.217" y="157.947" width="762.635" height="762.635" transform="rotate(45 625.535 539.265)" stroke="white" stroke-opacity="0.8" fill="none" stroke-width="1"/>
  <rect x="236.377" y="157.947" width="762.635" height="762.635" transform="rotate(45 617.695 539.265)" stroke="white" stroke-opacity="0.8" fill="none" stroke-width="1"/>
  <rect x="228.538" y="157.947" width="762.635" height="762.635" transform="rotate(45 609.855 539.265)" stroke="white" stroke-opacity="0.8" fill="none" stroke-width="1"/>
  <rect x="220.688" y="157.947" width="762.635" height="762.635" transform="rotate(45 602.005 539.265)" stroke="white" stroke-opacity="0.8" fill="none" stroke-width="1"/>
  <rect x="212.847" y="157.947" width="762.635" height="762.635" transform="rotate(45 594.165 539.265)" stroke="white" stroke-opacity="0.8" fill="none" stroke-width="1"/>
  <rect x="205.007" y="157.947" width="762.635" height="762.635" transform="rotate(45 586.325 539.265)" stroke="white" stroke-opacity="0.8" fill="none" stroke-width="1"/>
  <rect x="197.168" y="157.947" width="762.635" height="762.635" transform="rotate(45 578.485 539.265)" stroke="white" stroke-opacity="0.8" fill="none" stroke-width="1"/>
  <rect x="189.317" y="157.947" width="762.635" height="762.635" transform="rotate(45 570.635 539.265)" stroke="white" stroke-opacity="0.8" fill="none" stroke-width="1"/>
  <rect x="181.477" y="157.947" width="762.635" height="762.635" transform="rotate(45 562.795 539.265)" stroke="white" stroke-opacity="0.8" fill="none" stroke-width="1"/>
  <rect x="173.638" y="157.947" width="762.635" height="762.635" transform="rotate(45 554.955 539.265)" stroke="white" stroke-opacity="0.8" fill="none" stroke-width="1"/>
  <rect x="165.788" y="157.947" width="762.635" height="762.635" transform="rotate(45 547.105 539.265)" stroke="white" stroke-opacity="0.8" fill="none" stroke-width="1"/>
  <rect x="157.947" y="157.947" width="762.635" height="762.635" transform="rotate(45 539.265 539.265)" stroke="white" stroke-opacity="0.8" fill="none" stroke-width="1"/>
  <rect x="1383.418" y="1236.947" width="762.635" height="762.635" transform="rotate(45 1764.735 1618.265)" stroke="white" stroke-opacity="0.5" fill="none" stroke-width="1" opacity="0.8"/>
  <rect x="1375.577" y="1236.947" width="762.635" height="762.635" transform="rotate(45 1756.895 1618.265)" stroke="white" stroke-opacity="0.5" fill="none" stroke-width="1" opacity="0.8"/>
  <rect x="1367.727" y="1236.947" width="762.635" height="762.635" transform="rotate(45 1749.045 1618.265)" stroke="white" stroke-opacity="0.5" fill="none" stroke-width="1" opacity="0.8"/>
  <rect x="1359.887" y="1236.947" width="762.635" height="762.635" transform="rotate(45 1741.205 1618.265)" stroke="white" stroke-opacity="0.5" fill="none" stroke-width="1" opacity="0.8"/>
  <rect x="1352.048" y="1236.947" width="762.635" height="762.635" transform="rotate(45 1733.365 1618.265)" stroke="white" stroke-opacity="0.5" fill="none" stroke-width="1" opacity="0.8"/>
  <rect x="1344.207" y="1236.947" width="762.635" height="762.635" transform="rotate(45 1725.525 1618.265)" stroke="white" stroke-opacity="0.5" fill="none" stroke-width="1" opacity="0.8"/>
  <rect x="1336.358" y="1236.947" width="762.635" height="762.635" transform="rotate(45 1717.675 1618.265)" stroke="white" stroke-opacity="0.5" fill="none" stroke-width="1" opacity="0.8"/>
  <rect x="1328.517" y="1236.947" width="762.635" height="762.635" transform="rotate(45 1709.835 1618.265)" stroke="white" stroke-opacity="0.5" fill="none" stroke-width="1" opacity="0.8"/>
  <rect x="1320.677" y="1236.947" width="762.635" height="762.635" transform="rotate(45 1701.995 1618.265)" stroke="white" stroke-opacity="0.5" fill="none" stroke-width="1" opacity="0.8"/>
  <rect x="1312.827" y="1236.947" width="762.635" height="762.635" transform="rotate(45 1694.145 1618.265)" stroke="white" stroke-opacity="0.5" fill="none" stroke-width="1" opacity="0.8"/>
  <rect x="1304.987" y="1236.947" width="762.635" height="762.635" transform="rotate(45 1686.305 1618.265)" stroke="white" stroke-opacity="0.5" fill="none" stroke-width="1" opacity="0.8"/>
  <rect x="1297.148" y="1236.947" width="762.635" height="762.635" transform="rotate(45 1678.465 1618.265)" stroke="white" stroke-opacity="0.5" fill="none" stroke-width="1" opacity="0.8"/>
  <rect x="1289.298" y="1236.947" width="762.635" height="762.635" transform="rotate(45 1670.615 1618.265)" stroke="white" stroke-opacity="0.5" fill="none" stroke-width="1" opacity="0.8"/>
  <rect x="1281.457" y="1236.947" width="762.635" height="762.635" transform="rotate(45 1662.775 1618.265)" stroke="white" stroke-opacity="0.5" fill="none" stroke-width="1" opacity="0.8"/>
  <rect x="1273.617" y="1236.947" width="762.635" height="762.635" transform="rotate(45 1654.935 1618.265)" stroke="white" stroke-opacity="0.5" fill="none" stroke-width="1" opacity="0.8"/>
  <rect x="1265.767" y="1236.947" width="762.635" height="762.635" transform="rotate(45 1647.085 1618.265)" stroke="white" stroke-opacity="0.5" fill="none" stroke-width="1" opacity="0.8"/>
  <rect x="1257.927" y="1236.947" width="762.635" height="762.635" transform="rotate(45 1639.245 1618.265)" stroke="white" stroke-opacity="0.5" fill="none" stroke-width="1" opacity="0.8"/>
  <rect x="1250.088" y="1236.947" width="762.635" height="762.635" transform="rotate(45 1631.405 1618.265)" stroke="white" stroke-opacity="0.5" fill="none" stroke-width="1" opacity="0.8"/>
  <rect x="1242.247" y="1236.947" width="762.635" height="762.635" transform="rotate(45 1623.565 1618.265)" stroke="white" stroke-opacity="0.5" fill="none" stroke-width="1" opacity="0.8"/>
  <rect x="1234.398" y="1236.947" width="762.635" height="762.635" transform="rotate(45 1615.715 1618.265)" stroke="white" stroke-opacity="0.5" fill="none" stroke-width="1" opacity="0.8"/>
  <rect x="306.967" y="1236.947" width="762.635" height="762.635" transform="rotate(45 688.285 1618.265)" stroke="white" stroke-opacity="0.5" fill="none" stroke-width="1" opacity="0.8"/>
  <rect x="299.127" y="1236.947" width="762.635" height="762.635" transform="rotate(45 680.445 1618.265)" stroke="white" stroke-opacity="0.5" fill="none" stroke-width="1" opacity="0.8"/>
  <rect x="291.278" y="1236.947" width="762.635" height="762.635" transform="rotate(45 672.595 1618.265)" stroke="white" stroke-opacity="0.5" fill="none" stroke-width="1" opacity="0.8"/>
  <rect x="283.438" y="1236.947" width="762.635" height="762.635" transform="rotate(45 664.755 1618.265)" stroke="white" stroke-opacity="0.5" fill="none" stroke-width="1" opacity="0.8"/>
  <rect x="275.597" y="1236.947" width="762.635" height="762.635" transform="rotate(45 656.915 1618.265)" stroke="white" stroke-opacity="0.5" fill="none" stroke-width="1" opacity="0.8"/>
  <rect x="267.748" y="1236.947" width="762.635" height="762.635" transform="rotate(45 649.065 1618.265)" stroke="white" stroke-opacity="0.5" fill="none" stroke-width="1" opacity="0.8"/>
  <rect x="259.908" y="1236.947" width="762.635" height="762.635" transform="rotate(45 641.225 1618.265)" stroke="white" stroke-opacity="0.5" fill="none" stroke-width="1" opacity="0.8"/>
  <rect x="252.067" y="1236.947" width="762.635" height="762.635" transform="rotate(45 633.385 1618.265)" stroke="white" stroke-opacity="0.5" fill="none" stroke-width="1" opacity="0.8"/>
  <rect x="244.217" y="1236.947" width="762.635" height="762.635" transform="rotate(45 625.535 1618.265)" stroke="white" stroke-opacity="0.5" fill="none" stroke-width="1" opacity="0.8"/>
  <rect x="236.377" y="1236.947" width="762.635" height="762.635" transform="rotate(45 617.695 1618.265)" stroke="white" stroke-opacity="0.5" fill="none" stroke-width="1" opacity="0.8"/>
  <rect x="228.538" y="1236.947" width="762.635" height="762.635" transform="rotate(45 609.855 1618.265)" stroke="white" stroke-opacity="0.5" fill="none" stroke-width="1" opacity="0.8"/>
  <rect x="220.688" y="1236.947" width="762.635" height="762.635" transform="rotate(45 602.005 1618.265)" stroke="white" stroke-opacity="0.5" fill="none" stroke-width="1" opacity="0.8"/>
  <rect x="212.847" y="1236.947" width="762.635" height="762.635" transform="rotate(45 594.165 1618.265)" stroke="white" stroke-opacity="0.5" fill="none" stroke-width="1" opacity="0.8"/>
  <rect x="205.008" y="1236.947" width="762.635" height="762.635" transform="rotate(45 586.325 1618.265)" stroke="white" stroke-opacity="0.5" fill="none" stroke-width="1" opacity="0.8"/>
  <rect x="197.168" y="1236.947" width="762.635" height="762.635" transform="rotate(45 578.485 1618.265)" stroke="white" stroke-opacity="0.5" fill="none" stroke-width="1" opacity="0.8"/>
  <rect x="189.317" y="1236.947" width="762.635" height="762.635" transform="rotate(45 570.635 1618.265)" stroke="white" stroke-opacity="0.5" fill="none" stroke-width="1" opacity="0.8"/>
  <rect x="181.477" y="1236.947" width="762.635" height="762.635" transform="rotate(45 562.795 1618.265)" stroke="white" stroke-opacity="0.5" fill="none" stroke-width="1" opacity="0.8"/>
  <rect x="173.637" y="1236.947" width="762.635" height="762.635" transform="rotate(45 554.955 1618.265)" stroke="white" stroke-opacity="0.5" fill="none" stroke-width="1" opacity="0.8"/>
  <rect x="165.788" y="1236.947" width="762.635" height="762.635" transform="rotate(45 547.105 1618.265)" stroke="white" stroke-opacity="0.5" fill="none" stroke-width="1" opacity="0.8"/>
  <rect x="157.947" y="1236.947" width="762.635" height="762.635" transform="rotate(45 539.265 1618.265)" stroke="white" stroke-opacity="0.5" fill="none" stroke-width="1" opacity="0.8"/>
</svg>
